<?xml version="1.0" encoding="utf-8"?>
<!-- Generator: Adobe Illustrator 17.1.0, SVG Export Plug-In . SVG Version: 6.00 Build 0)  -->
<!DOCTYPE svg PUBLIC "-//W3C//DTD SVG 1.1//EN" "http://www.w3.org/Graphics/SVG/1.1/DTD/svg11.dtd">
<svg version="1.1" id="Layer_1" xmlns="http://www.w3.org/2000/svg" xmlns:xlink="http://www.w3.org/1999/xlink" x="0px" y="0px"
	 viewBox="0 0 120 58" enable-background="new 0 0 120 58" xml:space="preserve">
<path fill="#333333" d="M55.1,0.9h1.7L57,0.1H35.6l-0.2,0.8h3.1c2.7,0,4.9,1.9,4.9,5.6c0,2.1-0.9,4.8-2.4,8.1L27.1,45.3L23.7,5.4
	c-0.3-3.1,1.3-4.5,4.8-4.5h2l0.2-0.8H0.5L0.2,0.9h1.9c2.4,0,3.3,1.5,3.5,4.3l5.4,51.6h12.7l21.3-45.1C48.3,5,51.7,0.9,55.1,0.9z
	 M52.6,57c-1.9,0-3.1-0.6-3.1-3.8c0-4,1.5-11.9,3.1-19.1c0.2,3.3,2.5,6.6,5.9,6.6c0.8,0,1.5-0.1,2.2-0.2C57.5,54.2,56.3,57,52.6,57z
	 M113.2,29.9c4,0,6.6-3.3,6.6-7.1c0-3.2-2.3-5.6-5.6-5.6c-5.9,0-8.7,4.7-13.6,13.3c-1-5.4-3.5-12.4-9.7-12.4c-7,0-15.1,10-22.5,16.2
	C65,37.2,61.3,39,58.3,39c-3.1,0-4.9-3.1-4.9-8.6c2.2-9,3.3-11.3,6.7-11.3c2.3,0,3.3,1.3,3.3,4c0,2.9-0.6,7.7-1.9,13.8
	c3.3-1,8.3-5.2,12.5-9.7c-2.2-5.3-7-8.9-13.8-8.9c-12.7,0-23.9,11.4-23.9,24.2c0,8.8,6.3,15.5,16.1,15.5c16.2,0,23-14,23-23.8
	c0-1.4-0.1-2.4-0.2-3.7c2.5-2.7,5.7-5.3,8.3-5.3c3,0,5.4,7.5,7.7,18.8c-2.1,2.3-4.2,6.7-5.2,7.5c-0.4-4-3.1-6.5-6.6-6.5
	c-4,0-6.7,3.8-6.7,7c0,3.6,2.5,6,5.8,6c6.9,0,8.8-6.5,13.1-12.3c1.3,6.2,4.4,12.3,9.7,12.3c6.3,0,12.1-5.4,15.1-9.2l-0.6-0.9
	c-1.9,1.9-3.8,3.1-6,3.1c-3.9,0-6.7-8.4-8.8-18.6c1.3-1.7,3.3-6.1,4.7-7.7C106.6,26.5,108.6,29.9,113.2,29.9z"/>
</svg>
